<svg width="54" height="16" viewBox="0 0 54 16" fill="none" xmlns="http://www.w3.org/2000/svg">
<path d="M24.6115 3.27273H23.3288L21.1513 4.69602V5.95739L23.2393 4.59375H23.2905V12H24.6115V3.27273ZM27.3366 12.081C27.8011 12.081 28.1889 11.7017 28.1889 11.2287C28.1889 10.7642 27.8011 10.3807 27.3366 10.3807C26.8679 10.3807 26.4844 10.7642 26.4844 11.2287C26.4844 11.7017 26.8679 12.081 27.3366 12.081ZM29.8786 12H35.6229V10.8707H31.6939V10.8068L33.4283 8.99148C35.0263 7.37642 35.4822 6.60511 35.4822 5.62926C35.4822 4.22727 34.3402 3.15341 32.6953 3.15341C31.0632 3.15341 29.87 4.21023 29.87 5.80398H31.1271C31.1229 4.86648 31.728 4.25284 32.6697 4.25284C33.5561 4.25284 34.2294 4.7983 34.2294 5.66761C34.2294 6.43892 33.7692 6.9929 32.8317 7.9858L29.8786 11.0455V12ZM36.8672 10.2955H41.005V12H42.2621V10.2955H43.4169V9.17898H42.2621V3.27273H40.6385L36.8672 9.23011V10.2955ZM41.0135 9.17898H38.2479V9.1108L40.9453 4.84091H41.0135V9.17898ZM49.4574 10.3636C49.4616 11.348 50.0795 12.179 51.2344 12.179C52.3764 12.179 53.0028 11.348 53.0028 10.3636V9.90341C53.0028 8.91477 52.3935 8.08807 51.2344 8.08807C50.0966 8.08807 49.4616 8.91903 49.4574 9.90341V10.3636ZM45.0682 5.36932C45.0682 6.35369 45.6903 7.18466 46.8452 7.18466C47.983 7.18466 48.6136 6.35795 48.6094 5.36932V4.90909C48.6136 3.92045 48 3.09375 46.8452 3.09375C45.7116 3.09375 45.0682 3.92045 45.0682 4.90909V5.36932ZM45.4261 12H46.4446L52.4446 3.27273H51.4261L45.4261 12ZM50.4503 9.90341C50.4545 9.41335 50.6676 8.94034 51.2344 8.94034C51.8224 8.94034 52.0057 9.41335 52.0057 9.90341V10.3636C52.0057 10.8537 51.8054 11.3267 51.2344 11.3267C50.6548 11.3267 50.4545 10.8494 50.4503 10.3636V9.90341ZM46.0653 4.90909C46.0653 4.4233 46.2784 3.94602 46.8452 3.94602C47.4332 3.94602 47.6165 4.41903 47.6165 4.90909V5.36932C47.6165 5.85938 47.4162 6.33239 46.8452 6.33239C46.2656 6.33239 46.0653 5.85938 46.0653 5.36932V4.90909Z" fill="#20BF6B"/>
<path d="M7.99998 1.33331C4.32665 1.33331 1.33331 4.32665 1.33331 7.99998C1.33331 11.6733 4.32665 14.6666 7.99998 14.6666C11.6733 14.6666 14.6666 11.6733 14.6666 7.99998C14.6666 4.32665 11.6733 1.33331 7.99998 1.33331ZM10.7066 9.19331C10.6066 9.29331 10.48 9.33998 10.3533 9.33998C10.2266 9.33998 10.1 9.29331 9.99998 9.19331L7.99998 7.19331L5.99998 9.19331C5.80665 9.38665 5.48665 9.38665 5.29331 9.19331C5.09998 8.99998 5.09998 8.67998 5.29331 8.48665L7.64665 6.13331C7.83998 5.93998 8.15998 5.93998 8.35331 6.13331L10.7066 8.48665C10.9 8.68665 10.9 8.99998 10.7066 9.19331Z" fill="#20BF6B"/>
</svg>
