<svg width="54" height="16" viewBox="0 0 54 16" fill="none" xmlns="http://www.w3.org/2000/svg">
<path d="M24.5763 3.27273H23.2937L21.1161 4.69602V5.95739L23.2042 4.59375H23.2553V12H24.5763V3.27273ZM27.3015 12.081C27.766 12.081 28.1538 11.7017 28.1538 11.2287C28.1538 10.7642 27.766 10.3807 27.3015 10.3807C26.8327 10.3807 26.4492 10.7642 26.4492 11.2287C26.4492 11.7017 26.8327 12.081 27.3015 12.081ZM32.5771 12.1193C34.3583 12.1193 35.6665 11.054 35.6623 9.60511C35.6665 8.50142 34.9975 7.70881 33.8384 7.52983V7.46165C34.7504 7.22727 35.3427 6.51136 35.3384 5.53125C35.3427 4.24858 34.2901 3.15341 32.6112 3.15341C31.0089 3.15341 29.7219 4.12074 29.6793 5.53977H30.9535C30.9833 4.73864 31.7376 4.25284 32.5941 4.25284C33.4847 4.25284 34.0685 4.79403 34.0643 5.59943C34.0685 6.44318 33.391 6.99716 32.4237 6.99716H31.6864V8.07102H32.4237C33.6339 8.07102 34.3327 8.68466 34.3327 9.5625C34.3327 10.4105 33.5955 10.9858 32.5685 10.9858C31.6225 10.9858 30.8853 10.5 30.8342 9.72443H29.4961C29.5515 11.1477 30.8129 12.1193 32.5771 12.1193ZM40.32 12.1193C42.1438 12.1364 43.354 10.8239 43.3498 9.14915C43.354 7.47869 42.1396 6.28125 40.6268 6.28125C39.7063 6.28125 38.9094 6.72443 38.462 7.46165H38.3981C38.4023 5.48011 39.1523 4.30398 40.4308 4.30398C41.2702 4.30398 41.7987 4.81534 41.9776 5.53977H43.2773C43.0771 4.15909 41.9904 3.15341 40.4308 3.15341C38.4023 3.15341 37.1367 4.89631 37.1367 7.9304C37.1325 11.1435 38.7688 12.1065 40.32 12.1193ZM40.3157 11.0114C39.3015 11.0114 38.56 10.1591 38.56 9.17898C38.5643 8.20312 39.3398 7.35085 40.3455 7.35085C41.3427 7.35085 42.0756 8.15625 42.0714 9.16619C42.0756 10.1974 41.3129 11.0114 40.3157 11.0114ZM49.4574 10.3636C49.4616 11.348 50.0795 12.179 51.2344 12.179C52.3764 12.179 53.0028 11.348 53.0028 10.3636V9.90341C53.0028 8.91477 52.3935 8.08807 51.2344 8.08807C50.0966 8.08807 49.4616 8.91903 49.4574 9.90341V10.3636ZM45.0682 5.36932C45.0682 6.35369 45.6903 7.18466 46.8452 7.18466C47.983 7.18466 48.6136 6.35795 48.6094 5.36932V4.90909C48.6136 3.92045 48 3.09375 46.8452 3.09375C45.7116 3.09375 45.0682 3.92045 45.0682 4.90909V5.36932ZM45.4261 12H46.4446L52.4446 3.27273H51.4261L45.4261 12ZM50.4503 9.90341C50.4545 9.41335 50.6676 8.94034 51.2344 8.94034C51.8224 8.94034 52.0057 9.41335 52.0057 9.90341V10.3636C52.0057 10.8537 51.8054 11.3267 51.2344 11.3267C50.6548 11.3267 50.4545 10.8494 50.4503 10.3636V9.90341ZM46.0653 4.90909C46.0653 4.4233 46.2784 3.94602 46.8452 3.94602C47.4332 3.94602 47.6165 4.41903 47.6165 4.90909V5.36932C47.6165 5.85938 47.4162 6.33239 46.8452 6.33239C46.2656 6.33239 46.0653 5.85938 46.0653 5.36932V4.90909Z" fill="#EB3B5A"/>
<path d="M7.99998 14.6666C4.32665 14.6666 1.33331 11.6733 1.33331 7.99996C1.33331 4.32663 4.32665 1.33329 7.99998 1.33329C11.6733 1.33329 14.6666 4.32663 14.6666 7.99996C14.6666 11.6733 11.6733 14.6666 7.99998 14.6666ZM10.7066 6.80663C10.6066 6.70663 10.48 6.65996 10.3533 6.65996C10.2266 6.65996 10.1 6.70663 9.99998 6.80663L7.99998 8.80663L5.99998 6.80663C5.80665 6.61329 5.48665 6.61329 5.29331 6.80663C5.09998 6.99996 5.09998 7.31996 5.29331 7.51329L7.64665 9.86663C7.83998 10.06 8.15998 10.06 8.35331 9.86663L10.7066 7.51329C10.9 7.31329 10.9 6.99996 10.7066 6.80663Z" fill="#EB3B5A"/>
</svg>
