<svg width="56" height="16" viewBox="0 0 56 16" fill="none" xmlns="http://www.w3.org/2000/svg">
<path d="M20.6562 10.2955H24.794V12H26.0511V10.2955H27.206V9.17898H26.0511V3.27273H24.4276L20.6562 9.23011V10.2955ZM24.8026 9.17898H22.0369V9.1108L24.7344 4.84091H24.8026V9.17898ZM29.2195 12.081C29.6839 12.081 30.0717 11.7017 30.0717 11.2287C30.0717 10.7642 29.6839 10.3807 29.2195 10.3807C28.7507 10.3807 28.3672 10.7642 28.3672 11.2287C28.3672 11.7017 28.7507 12.081 29.2195 12.081ZM34.495 12.1193C36.2763 12.1193 37.5845 11.054 37.5803 9.60511C37.5845 8.50142 36.9155 7.70881 35.7564 7.52983V7.46165C36.6683 7.22727 37.2607 6.51136 37.2564 5.53125C37.2607 4.24858 36.2081 3.15341 34.5291 3.15341C32.9268 3.15341 31.6399 4.12074 31.5973 5.53977H32.8714C32.9013 4.73864 33.6555 4.25284 34.5121 4.25284C35.4027 4.25284 35.9865 4.79403 35.9822 5.59943C35.9865 6.44318 35.3089 6.99716 34.3416 6.99716H33.6044V8.07102H34.3416C35.5518 8.07102 36.2507 8.68466 36.2507 9.5625C36.2507 10.4105 35.5135 10.9858 34.4865 10.9858C33.5405 10.9858 32.8033 10.5 32.7521 9.72443H31.4141C31.4695 11.1477 32.7308 12.1193 34.495 12.1193ZM42.2379 12.1193C44.0618 12.1364 45.272 10.8239 45.2678 9.14915C45.272 7.47869 44.0575 6.28125 42.5447 6.28125C41.6243 6.28125 40.8274 6.72443 40.38 7.46165H40.3161C40.3203 5.48011 41.0703 4.30398 42.3487 4.30398C43.1882 4.30398 43.7166 4.81534 43.8956 5.53977H45.1953C44.995 4.15909 43.9084 3.15341 42.3487 3.15341C40.3203 3.15341 39.0547 4.89631 39.0547 7.9304C39.0504 11.1435 40.6868 12.1065 42.2379 12.1193ZM42.2337 11.0114C41.2195 11.0114 40.478 10.1591 40.478 9.17898C40.4822 8.20312 41.2578 7.35085 42.2635 7.35085C43.2607 7.35085 43.9936 8.15625 43.9893 9.16619C43.9936 10.1974 43.2308 11.0114 42.2337 11.0114ZM51.3754 10.3636C51.3796 11.348 51.9975 12.179 53.1523 12.179C54.2944 12.179 54.9208 11.348 54.9208 10.3636V9.90341C54.9208 8.91477 54.3114 8.08807 53.1523 8.08807C52.0146 8.08807 51.3796 8.91903 51.3754 9.90341V10.3636ZM46.9862 5.36932C46.9862 6.35369 47.6083 7.18466 48.7631 7.18466C49.9009 7.18466 50.5316 6.35795 50.5273 5.36932V4.90909C50.5316 3.92045 49.918 3.09375 48.7631 3.09375C47.6296 3.09375 46.9862 3.92045 46.9862 4.90909V5.36932ZM47.3441 12H48.3626L54.3626 3.27273H53.3441L47.3441 12ZM52.3683 9.90341C52.3725 9.41335 52.5856 8.94034 53.1523 8.94034C53.7404 8.94034 53.9237 9.41335 53.9237 9.90341V10.3636C53.9237 10.8537 53.7234 11.3267 53.1523 11.3267C52.5728 11.3267 52.3725 10.8494 52.3683 10.3636V9.90341ZM47.9833 4.90909C47.9833 4.4233 48.1964 3.94602 48.7631 3.94602C49.3512 3.94602 49.5344 4.41903 49.5344 4.90909V5.36932C49.5344 5.85938 49.3342 6.33239 48.7631 6.33239C48.1836 6.33239 47.9833 5.85938 47.9833 5.36932V4.90909Z" fill="#20BF6B"/>
<path d="M8.00001 1.33337C4.32668 1.33337 1.33334 4.32671 1.33334 8.00004C1.33334 11.6734 4.32668 14.6667 8.00001 14.6667C11.6733 14.6667 14.6667 11.6734 14.6667 8.00004C14.6667 4.32671 11.6733 1.33337 8.00001 1.33337ZM10.7067 9.19337C10.6067 9.29337 10.48 9.34004 10.3533 9.34004C10.2267 9.34004 10.1 9.29337 10 9.19337L8.00001 7.19337L6.00001 9.19337C5.80668 9.38671 5.48668 9.38671 5.29334 9.19337C5.10001 9.00004 5.10001 8.68004 5.29334 8.48671L7.64668 6.13337C7.84001 5.94004 8.16001 5.94004 8.35334 6.13337L10.7067 8.48671C10.9 8.68671 10.9 9.00004 10.7067 9.19337Z" fill="#20BF6B"/>
</svg>
