<svg width="561" height="2" viewBox="0 0 561 2" fill="none" xmlns="http://www.w3.org/2000/svg">
<path d="M1.00179 1.5C1.27793 1.5 1.50179 1.27614 1.50179 1C1.50179 0.723858 1.27793 0.5 1.00179 0.5V1.5ZM6.01071 0.5C5.73457 0.5 5.51071 0.723858 5.51071 1C5.51071 1.27614 5.73457 1.5 6.01071 1.5V0.5ZM8.01429 1.5C8.29043 1.5 8.51429 1.27614 8.51429 1C8.51429 0.723858 8.29043 0.5 8.01429 0.5V1.5ZM13.0232 0.5C12.7471 0.5 12.5232 0.723858 12.5232 1C12.5232 1.27614 12.7471 1.5 13.0232 1.5V0.5ZM15.0268 1.5C15.3029 1.5 15.5268 1.27614 15.5268 1C15.5268 0.723858 15.3029 0.5 15.0268 0.5V1.5ZM20.0357 0.5C19.7596 0.5 19.5357 0.723858 19.5357 1C19.5357 1.27614 19.7596 1.5 20.0357 1.5V0.5ZM22.0393 1.5C22.3154 1.5 22.5393 1.27614 22.5393 1C22.5393 0.723858 22.3154 0.5 22.0393 0.5V1.5ZM27.0482 0.5C26.7721 0.5 26.5482 0.723858 26.5482 1C26.5482 1.27614 26.7721 1.5 27.0482 1.5V0.5ZM29.0518 1.5C29.3279 1.5 29.5518 1.27614 29.5518 1C29.5518 0.723858 29.3279 0.5 29.0518 0.5V1.5ZM34.0607 0.5C33.7846 0.5 33.5607 0.723858 33.5607 1C33.5607 1.27614 33.7846 1.5 34.0607 1.5V0.5ZM36.0643 1.5C36.3404 1.5 36.5643 1.27614 36.5643 1C36.5643 0.723858 36.3404 0.5 36.0643 0.5V1.5ZM41.0732 0.5C40.7971 0.5 40.5732 0.723858 40.5732 1C40.5732 1.27614 40.7971 1.5 41.0732 1.5V0.5ZM43.0768 1.5C43.3529 1.5 43.5768 1.27614 43.5768 1C43.5768 0.723858 43.3529 0.5 43.0768 0.5V1.5ZM48.0857 0.5C47.8096 0.5 47.5857 0.723858 47.5857 1C47.5857 1.27614 47.8096 1.5 48.0857 1.5V0.5ZM50.0893 1.5C50.3654 1.5 50.5893 1.27614 50.5893 1C50.5893 0.723858 50.3654 0.5 50.0893 0.5V1.5ZM55.0982 0.5C54.8221 0.5 54.5982 0.723858 54.5982 1C54.5982 1.27614 54.8221 1.5 55.0982 1.5V0.5ZM57.1018 1.5C57.3779 1.5 57.6018 1.27614 57.6018 1C57.6018 0.723858 57.3779 0.5 57.1018 0.5V1.5ZM62.1107 0.5C61.8346 0.5 61.6107 0.723858 61.6107 1C61.6107 1.27614 61.8346 1.5 62.1107 1.5V0.5ZM64.1143 1.5C64.3904 1.5 64.6143 1.27614 64.6143 1C64.6143 0.723858 64.3904 0.5 64.1143 0.5V1.5ZM69.1232 0.5C68.8471 0.5 68.6232 0.723858 68.6232 1C68.6232 1.27614 68.8471 1.5 69.1232 1.5V0.5ZM71.1268 1.5C71.4029 1.5 71.6268 1.27614 71.6268 1C71.6268 0.723858 71.4029 0.5 71.1268 0.5V1.5ZM76.1357 0.5C75.8596 0.5 75.6357 0.723858 75.6357 1C75.6357 1.27614 75.8596 1.5 76.1357 1.5V0.5ZM78.1393 1.5C78.4154 1.5 78.6393 1.27614 78.6393 1C78.6393 0.723858 78.4154 0.5 78.1393 0.5V1.5ZM83.1482 0.5C82.8721 0.5 82.6482 0.723858 82.6482 1C82.6482 1.27614 82.8721 1.5 83.1482 1.5V0.5ZM85.1518 1.5C85.4279 1.5 85.6518 1.27614 85.6518 1C85.6518 0.723858 85.4279 0.5 85.1518 0.5V1.5ZM90.1607 0.5C89.8846 0.5 89.6607 0.723858 89.6607 1C89.6607 1.27614 89.8846 1.5 90.1607 1.5V0.5ZM92.1643 1.5C92.4404 1.5 92.6643 1.27614 92.6643 1C92.6643 0.723858 92.4404 0.5 92.1643 0.5V1.5ZM97.1732 0.5C96.8971 0.5 96.6732 0.723858 96.6732 1C96.6732 1.27614 96.8971 1.5 97.1732 1.5V0.5ZM99.1768 1.5C99.4529 1.5 99.6768 1.27614 99.6768 1C99.6768 0.723858 99.4529 0.5 99.1768 0.5V1.5ZM104.186 0.5C103.91 0.5 103.686 0.723858 103.686 1C103.686 1.27614 103.91 1.5 104.186 1.5V0.5ZM106.189 1.5C106.465 1.5 106.689 1.27614 106.689 1C106.689 0.723858 106.465 0.5 106.189 0.5V1.5ZM111.198 0.5C110.922 0.5 110.698 0.723858 110.698 1C110.698 1.27614 110.922 1.5 111.198 1.5V0.5ZM113.202 1.5C113.478 1.5 113.702 1.27614 113.702 1C113.702 0.723858 113.478 0.5 113.202 0.5V1.5ZM118.211 0.5C117.935 0.5 117.711 0.723858 117.711 1C117.711 1.27614 117.935 1.5 118.211 1.5V0.5ZM120.214 1.5C120.49 1.5 120.714 1.27614 120.714 1C120.714 0.723858 120.49 0.5 120.214 0.5V1.5ZM125.223 0.5C124.947 0.5 124.723 0.723858 124.723 1C124.723 1.27614 124.947 1.5 125.223 1.5V0.5ZM127.227 1.5C127.503 1.5 127.727 1.27614 127.727 1C127.727 0.723858 127.503 0.5 127.227 0.5V1.5ZM132.236 0.5C131.96 0.5 131.736 0.723858 131.736 1C131.736 1.27614 131.96 1.5 132.236 1.5V0.5ZM134.239 1.5C134.515 1.5 134.739 1.27614 134.739 1C134.739 0.723858 134.515 0.5 134.239 0.5V1.5ZM139.248 0.5C138.972 0.5 138.748 0.723858 138.748 1C138.748 1.27614 138.972 1.5 139.248 1.5V0.5ZM141.252 1.5C141.528 1.5 141.752 1.27614 141.752 1C141.752 0.723858 141.528 0.5 141.252 0.5V1.5ZM146.261 0.5C145.985 0.5 145.761 0.723858 145.761 1C145.761 1.27614 145.985 1.5 146.261 1.5V0.5ZM148.264 1.5C148.54 1.5 148.764 1.27614 148.764 1C148.764 0.723858 148.54 0.5 148.264 0.5V1.5ZM153.273 0.5C152.997 0.5 152.773 0.723858 152.773 1C152.773 1.27614 152.997 1.5 153.273 1.5V0.5ZM155.277 1.5C155.553 1.5 155.777 1.27614 155.777 1C155.777 0.723858 155.553 0.5 155.277 0.5V1.5ZM160.286 0.5C160.01 0.5 159.786 0.723858 159.786 1C159.786 1.27614 160.01 1.5 160.286 1.5V0.5ZM162.289 1.5C162.565 1.5 162.789 1.27614 162.789 1C162.789 0.723858 162.565 0.5 162.289 0.5V1.5ZM167.298 0.5C167.022 0.5 166.798 0.723858 166.798 1C166.798 1.27614 167.022 1.5 167.298 1.5V0.5ZM169.302 1.5C169.578 1.5 169.802 1.27614 169.802 1C169.802 0.723858 169.578 0.5 169.302 0.5V1.5ZM174.311 0.5C174.035 0.5 173.811 0.723858 173.811 1C173.811 1.27614 174.035 1.5 174.311 1.5V0.5ZM176.314 1.5C176.59 1.5 176.814 1.27614 176.814 1C176.814 0.723858 176.59 0.5 176.314 0.5V1.5ZM181.323 0.5C181.047 0.5 180.823 0.723858 180.823 1C180.823 1.27614 181.047 1.5 181.323 1.5V0.5ZM183.327 1.5C183.603 1.5 183.827 1.27614 183.827 1C183.827 0.723858 183.603 0.5 183.327 0.5V1.5ZM188.336 0.5C188.06 0.5 187.836 0.723858 187.836 1C187.836 1.27614 188.06 1.5 188.336 1.5V0.5ZM190.339 1.5C190.615 1.5 190.839 1.27614 190.839 1C190.839 0.723858 190.615 0.5 190.339 0.5V1.5ZM195.348 0.5C195.072 0.5 194.848 0.723858 194.848 1C194.848 1.27614 195.072 1.5 195.348 1.5V0.5ZM197.352 1.5C197.628 1.5 197.852 1.27614 197.852 1C197.852 0.723858 197.628 0.5 197.352 0.5V1.5ZM202.361 0.5C202.085 0.5 201.861 0.723858 201.861 1C201.861 1.27614 202.085 1.5 202.361 1.5V0.5ZM204.364 1.5C204.64 1.5 204.864 1.27614 204.864 1C204.864 0.723858 204.64 0.5 204.364 0.5V1.5ZM209.373 0.5C209.097 0.5 208.873 0.723858 208.873 1C208.873 1.27614 209.097 1.5 209.373 1.5V0.5ZM211.377 1.5C211.653 1.5 211.877 1.27614 211.877 1C211.877 0.723858 211.653 0.5 211.377 0.5V1.5ZM216.386 0.5C216.11 0.5 215.886 0.723858 215.886 1C215.886 1.27614 216.11 1.5 216.386 1.5V0.5ZM218.389 1.5C218.665 1.5 218.889 1.27614 218.889 1C218.889 0.723858 218.665 0.5 218.389 0.5V1.5ZM223.398 0.5C223.122 0.5 222.898 0.723858 222.898 1C222.898 1.27614 223.122 1.5 223.398 1.5V0.5ZM225.402 1.5C225.678 1.5 225.902 1.27614 225.902 1C225.902 0.723858 225.678 0.5 225.402 0.5V1.5ZM230.411 0.5C230.135 0.5 229.911 0.723858 229.911 1C229.911 1.27614 230.135 1.5 230.411 1.5V0.5ZM232.414 1.5C232.69 1.5 232.914 1.27614 232.914 1C232.914 0.723858 232.69 0.5 232.414 0.5V1.5ZM237.423 0.5C237.147 0.5 236.923 0.723858 236.923 1C236.923 1.27614 237.147 1.5 237.423 1.5V0.5ZM239.427 1.5C239.703 1.5 239.927 1.27614 239.927 1C239.927 0.723858 239.703 0.5 239.427 0.5V1.5ZM244.436 0.5C244.16 0.5 243.936 0.723858 243.936 1C243.936 1.27614 244.16 1.5 244.436 1.5V0.5ZM246.439 1.5C246.715 1.5 246.939 1.27614 246.939 1C246.939 0.723858 246.715 0.5 246.439 0.5V1.5ZM251.448 0.5C251.172 0.5 250.948 0.723858 250.948 1C250.948 1.27614 251.172 1.5 251.448 1.5V0.5ZM253.452 1.5C253.728 1.5 253.952 1.27614 253.952 1C253.952 0.723858 253.728 0.5 253.452 0.5V1.5ZM258.461 0.5C258.185 0.5 257.961 0.723858 257.961 1C257.961 1.27614 258.185 1.5 258.461 1.5V0.5ZM260.464 1.5C260.74 1.5 260.964 1.27614 260.964 1C260.964 0.723858 260.74 0.5 260.464 0.5V1.5ZM265.473 0.5C265.197 0.5 264.973 0.723858 264.973 1C264.973 1.27614 265.197 1.5 265.473 1.5V0.5ZM267.477 1.5C267.753 1.5 267.977 1.27614 267.977 1C267.977 0.723858 267.753 0.5 267.477 0.5V1.5ZM272.486 0.5C272.21 0.5 271.986 0.723858 271.986 1C271.986 1.27614 272.21 1.5 272.486 1.5V0.5ZM274.489 1.5C274.765 1.5 274.989 1.27614 274.989 1C274.989 0.723858 274.765 0.5 274.489 0.5V1.5ZM279.498 0.5C279.222 0.5 278.998 0.723858 278.998 1C278.998 1.27614 279.222 1.5 279.498 1.5V0.5ZM281.502 1.5C281.778 1.5 282.002 1.27614 282.002 1C282.002 0.723858 281.778 0.5 281.502 0.5V1.5ZM286.511 0.5C286.235 0.5 286.011 0.723858 286.011 1C286.011 1.27614 286.235 1.5 286.511 1.5V0.5ZM288.514 1.5C288.79 1.5 289.014 1.27614 289.014 1C289.014 0.723858 288.79 0.5 288.514 0.5V1.5ZM293.523 0.5C293.247 0.5 293.023 0.723858 293.023 1C293.023 1.27614 293.247 1.5 293.523 1.5V0.5ZM295.527 1.5C295.803 1.5 296.027 1.27614 296.027 1C296.027 0.723858 295.803 0.5 295.527 0.5V1.5ZM300.536 0.5C300.26 0.5 300.036 0.723858 300.036 1C300.036 1.27614 300.26 1.5 300.536 1.5V0.5ZM302.539 1.5C302.815 1.5 303.039 1.27614 303.039 1C303.039 0.723858 302.815 0.5 302.539 0.5V1.5ZM307.548 0.5C307.272 0.5 307.048 0.723858 307.048 1C307.048 1.27614 307.272 1.5 307.548 1.5V0.5ZM309.552 1.5C309.828 1.5 310.052 1.27614 310.052 1C310.052 0.723858 309.828 0.5 309.552 0.5V1.5ZM314.561 0.5C314.285 0.5 314.061 0.723858 314.061 1C314.061 1.27614 314.285 1.5 314.561 1.5V0.5ZM316.564 1.5C316.84 1.5 317.064 1.27614 317.064 1C317.064 0.723858 316.84 0.5 316.564 0.5V1.5ZM321.573 0.5C321.297 0.5 321.073 0.723858 321.073 1C321.073 1.27614 321.297 1.5 321.573 1.5V0.5ZM323.577 1.5C323.853 1.5 324.077 1.27614 324.077 1C324.077 0.723858 323.853 0.5 323.577 0.5V1.5ZM328.586 0.5C328.31 0.5 328.086 0.723858 328.086 1C328.086 1.27614 328.31 1.5 328.586 1.5V0.5ZM330.589 1.5C330.865 1.5 331.089 1.27614 331.089 1C331.089 0.723858 330.865 0.5 330.589 0.5V1.5ZM335.598 0.5C335.322 0.5 335.098 0.723858 335.098 1C335.098 1.27614 335.322 1.5 335.598 1.5V0.5ZM337.602 1.5C337.878 1.5 338.102 1.27614 338.102 1C338.102 0.723858 337.878 0.5 337.602 0.5V1.5ZM342.611 0.5C342.335 0.5 342.111 0.723858 342.111 1C342.111 1.27614 342.335 1.5 342.611 1.5V0.5ZM344.614 1.5C344.891 1.5 345.114 1.27614 345.114 1C345.114 0.723858 344.891 0.5 344.614 0.5V1.5ZM349.623 0.5C349.347 0.5 349.123 0.723858 349.123 1C349.123 1.27614 349.347 1.5 349.623 1.5V0.5ZM351.627 1.5C351.903 1.5 352.127 1.27614 352.127 1C352.127 0.723858 351.903 0.5 351.627 0.5V1.5ZM356.636 0.5C356.36 0.5 356.136 0.723858 356.136 1C356.136 1.27614 356.36 1.5 356.636 1.5V0.5ZM358.639 1.5C358.916 1.5 359.139 1.27614 359.139 1C359.139 0.723858 358.916 0.5 358.639 0.5V1.5ZM363.648 0.5C363.372 0.5 363.148 0.723858 363.148 1C363.148 1.27614 363.372 1.5 363.648 1.5V0.5ZM365.652 1.5C365.928 1.5 366.152 1.27614 366.152 1C366.152 0.723858 365.928 0.5 365.652 0.5V1.5ZM370.661 0.5C370.385 0.5 370.161 0.723858 370.161 1C370.161 1.27614 370.385 1.5 370.661 1.5V0.5ZM372.664 1.5C372.941 1.5 373.164 1.27614 373.164 1C373.164 0.723858 372.941 0.5 372.664 0.5V1.5ZM377.673 0.5C377.397 0.5 377.173 0.723858 377.173 1C377.173 1.27614 377.397 1.5 377.673 1.5V0.5ZM379.677 1.5C379.953 1.5 380.177 1.27614 380.177 1C380.177 0.723858 379.953 0.5 379.677 0.5V1.5ZM384.686 0.5C384.41 0.5 384.186 0.723858 384.186 1C384.186 1.27614 384.41 1.5 384.686 1.5V0.5ZM386.689 1.5C386.966 1.5 387.189 1.27614 387.189 1C387.189 0.723858 386.966 0.5 386.689 0.5V1.5ZM391.698 0.5C391.422 0.5 391.198 0.723858 391.198 1C391.198 1.27614 391.422 1.5 391.698 1.5V0.5ZM393.702 1.5C393.978 1.5 394.202 1.27614 394.202 1C394.202 0.723858 393.978 0.5 393.702 0.5V1.5ZM398.711 0.5C398.435 0.5 398.211 0.723858 398.211 1C398.211 1.27614 398.435 1.5 398.711 1.5V0.5ZM400.714 1.5C400.991 1.5 401.214 1.27614 401.214 1C401.214 0.723858 400.991 0.5 400.714 0.5V1.5ZM405.723 0.5C405.447 0.5 405.223 0.723858 405.223 1C405.223 1.27614 405.447 1.5 405.723 1.5V0.5ZM407.727 1.5C408.003 1.5 408.227 1.27614 408.227 1C408.227 0.723858 408.003 0.5 407.727 0.5V1.5ZM412.736 0.5C412.46 0.5 412.236 0.723858 412.236 1C412.236 1.27614 412.46 1.5 412.736 1.5V0.5ZM414.74 1.5C415.016 1.5 415.24 1.27614 415.24 1C415.24 0.723858 415.016 0.5 414.74 0.5V1.5ZM419.748 0.5C419.472 0.5 419.248 0.723858 419.248 1C419.248 1.27614 419.472 1.5 419.748 1.5V0.5ZM421.752 1.5C422.028 1.5 422.252 1.27614 422.252 1C422.252 0.723858 422.028 0.5 421.752 0.5V1.5ZM426.761 0.5C426.485 0.5 426.261 0.723858 426.261 1C426.261 1.27614 426.485 1.5 426.761 1.5V0.5ZM428.765 1.5C429.041 1.5 429.265 1.27614 429.265 1C429.265 0.723858 429.041 0.5 428.765 0.5V1.5ZM433.773 0.5C433.497 0.5 433.273 0.723858 433.273 1C433.273 1.27614 433.497 1.5 433.773 1.5V0.5ZM435.777 1.5C436.053 1.5 436.277 1.27614 436.277 1C436.277 0.723858 436.053 0.5 435.777 0.5V1.5ZM440.786 0.5C440.51 0.5 440.286 0.723858 440.286 1C440.286 1.27614 440.51 1.5 440.786 1.5V0.5ZM442.79 1.5C443.066 1.5 443.29 1.27614 443.29 1C443.29 0.723858 443.066 0.5 442.79 0.5V1.5ZM447.798 0.5C447.522 0.5 447.298 0.723858 447.298 1C447.298 1.27614 447.522 1.5 447.798 1.5V0.5ZM449.802 1.5C450.078 1.5 450.302 1.27614 450.302 1C450.302 0.723858 450.078 0.5 449.802 0.5V1.5ZM454.811 0.5C454.535 0.5 454.311 0.723858 454.311 1C454.311 1.27614 454.535 1.5 454.811 1.5V0.5ZM456.815 1.5C457.091 1.5 457.315 1.27614 457.315 1C457.315 0.723858 457.091 0.5 456.815 0.5V1.5ZM461.823 0.5C461.547 0.5 461.323 0.723858 461.323 1C461.323 1.27614 461.547 1.5 461.823 1.5V0.5ZM463.827 1.5C464.103 1.5 464.327 1.27614 464.327 1C464.327 0.723858 464.103 0.5 463.827 0.5V1.5ZM468.836 0.5C468.56 0.5 468.336 0.723858 468.336 1C468.336 1.27614 468.56 1.5 468.836 1.5V0.5ZM470.84 1.5C471.116 1.5 471.34 1.27614 471.34 1C471.34 0.723858 471.116 0.5 470.84 0.5V1.5ZM475.849 0.5C475.572 0.5 475.349 0.723858 475.349 1C475.349 1.27614 475.572 1.5 475.849 1.5V0.5ZM477.852 1.5C478.128 1.5 478.352 1.27614 478.352 1C478.352 0.723858 478.128 0.5 477.852 0.5V1.5ZM482.861 0.5C482.585 0.5 482.361 0.723858 482.361 1C482.361 1.27614 482.585 1.5 482.861 1.5V0.5ZM484.865 1.5C485.141 1.5 485.365 1.27614 485.365 1C485.365 0.723858 485.141 0.5 484.865 0.5V1.5ZM489.874 0.5C489.597 0.5 489.374 0.723858 489.374 1C489.374 1.27614 489.597 1.5 489.874 1.5V0.5ZM491.877 1.5C492.153 1.5 492.377 1.27614 492.377 1C492.377 0.723858 492.153 0.5 491.877 0.5V1.5ZM496.886 0.5C496.61 0.5 496.386 0.723858 496.386 1C496.386 1.27614 496.61 1.5 496.886 1.5V0.5ZM498.89 1.5C499.166 1.5 499.39 1.27614 499.39 1C499.39 0.723858 499.166 0.5 498.89 0.5V1.5ZM503.899 0.5C503.622 0.5 503.399 0.723858 503.399 1C503.399 1.27614 503.622 1.5 503.899 1.5V0.5ZM505.902 1.5C506.178 1.5 506.402 1.27614 506.402 1C506.402 0.723858 506.178 0.5 505.902 0.5V1.5ZM510.911 0.5C510.635 0.5 510.411 0.723858 510.411 1C510.411 1.27614 510.635 1.5 510.911 1.5V0.5ZM512.915 1.5C513.191 1.5 513.415 1.27614 513.415 1C513.415 0.723858 513.191 0.5 512.915 0.5V1.5ZM517.924 0.5C517.647 0.5 517.424 0.723858 517.424 1C517.424 1.27614 517.647 1.5 517.924 1.5V0.5ZM519.927 1.5C520.203 1.5 520.427 1.27614 520.427 1C520.427 0.723858 520.203 0.5 519.927 0.5V1.5ZM524.936 0.5C524.66 0.5 524.436 0.723858 524.436 1C524.436 1.27614 524.66 1.5 524.936 1.5V0.5ZM526.94 1.5C527.216 1.5 527.44 1.27614 527.44 1C527.44 0.723858 527.216 0.5 526.94 0.5V1.5ZM531.949 0.5C531.672 0.5 531.449 0.723858 531.449 1C531.449 1.27614 531.672 1.5 531.949 1.5V0.5ZM533.952 1.5C534.228 1.5 534.452 1.27614 534.452 1C534.452 0.723858 534.228 0.5 533.952 0.5V1.5ZM538.961 0.5C538.685 0.5 538.461 0.723858 538.461 1C538.461 1.27614 538.685 1.5 538.961 1.5V0.5ZM540.965 1.5C541.241 1.5 541.465 1.27614 541.465 1C541.465 0.723858 541.241 0.5 540.965 0.5V1.5ZM545.974 0.5C545.697 0.5 545.474 0.723858 545.474 1C545.474 1.27614 545.697 1.5 545.974 1.5V0.5ZM547.977 1.5C548.253 1.5 548.477 1.27614 548.477 1C548.477 0.723858 548.253 0.5 547.977 0.5V1.5ZM552.986 0.5C552.71 0.5 552.486 0.723858 552.486 1C552.486 1.27614 552.71 1.5 552.986 1.5V0.5ZM554.99 1.5C555.266 1.5 555.49 1.27614 555.49 1C555.49 0.723858 555.266 0.5 554.99 0.5V1.5ZM559.999 0.5C559.722 0.5 559.499 0.723858 559.499 1C559.499 1.27614 559.722 1.5 559.999 1.5V0.5ZM0 1.5H1.00179V0.5H0V1.5ZM6.01071 1.5H8.01429V0.5H6.01071V1.5ZM13.0232 1.5H15.0268V0.5H13.0232V1.5ZM20.0357 1.5H22.0393V0.5H20.0357V1.5ZM27.0482 1.5H29.0518V0.5H27.0482V1.5ZM34.0607 1.5H36.0643V0.5H34.0607V1.5ZM41.0732 1.5H43.0768V0.5H41.0732V1.5ZM48.0857 1.5H50.0893V0.5H48.0857V1.5ZM55.0982 1.5H57.1018V0.5H55.0982V1.5ZM62.1107 1.5H64.1143V0.5H62.1107V1.5ZM69.1232 1.5H71.1268V0.5H69.1232V1.5ZM76.1357 1.5H78.1393V0.5H76.1357V1.5ZM83.1482 1.5H85.1518V0.5H83.1482V1.5ZM90.1607 1.5H92.1643V0.5H90.1607V1.5ZM97.1732 1.5H99.1768V0.5H97.1732V1.5ZM104.186 1.5H106.189V0.5H104.186V1.5ZM111.198 1.5H113.202V0.5H111.198V1.5ZM118.211 1.5H120.214V0.5H118.211V1.5ZM125.223 1.5H127.227V0.5H125.223V1.5ZM132.236 1.5H134.239V0.5H132.236V1.5ZM139.248 1.5H141.252V0.5H139.248V1.5ZM146.261 1.5H148.264V0.5H146.261V1.5ZM153.273 1.5H155.277V0.5H153.273V1.5ZM160.286 1.5H162.289V0.5H160.286V1.5ZM167.298 1.5H169.302V0.5H167.298V1.5ZM174.311 1.5H176.314V0.5H174.311V1.5ZM181.323 1.5H183.327V0.5H181.323V1.5ZM188.336 1.5H190.339V0.5H188.336V1.5ZM195.348 1.5H197.352V0.5H195.348V1.5ZM202.361 1.5H204.364V0.5H202.361V1.5ZM209.373 1.5H211.377V0.5H209.373V1.5ZM216.386 1.5H218.389V0.5H216.386V1.5ZM223.398 1.5H225.402V0.5H223.398V1.5ZM230.411 1.5H232.414V0.5H230.411V1.5ZM237.423 1.5H239.427V0.5H237.423V1.5ZM244.436 1.5H246.439V0.5H244.436V1.5ZM251.448 1.5H253.452V0.5H251.448V1.5ZM258.461 1.5H260.464V0.5H258.461V1.5ZM265.473 1.5H267.477V0.5H265.473V1.5ZM272.486 1.5H274.489V0.5H272.486V1.5ZM279.498 1.5H281.502V0.5H279.498V1.5ZM286.511 1.5H288.514V0.5H286.511V1.5ZM293.523 1.5H295.527V0.5H293.523V1.5ZM300.536 1.5H302.539V0.5H300.536V1.5ZM307.548 1.5H309.552V0.5H307.548V1.5ZM314.561 1.5H316.564V0.5H314.561V1.5ZM321.573 1.5H323.577V0.5H321.573V1.5ZM328.586 1.5H330.589V0.5H328.586V1.5ZM335.598 1.5H337.602V0.5H335.598V1.5ZM342.611 1.5H344.614V0.5H342.611V1.5ZM349.623 1.5H351.627V0.5H349.623V1.5ZM356.636 1.5H358.639V0.5H356.636V1.5ZM363.648 1.5H365.652V0.5H363.648V1.5ZM370.661 1.5H372.664V0.5H370.661V1.5ZM377.673 1.5H379.677V0.5H377.673V1.5ZM384.686 1.5H386.689V0.5H384.686V1.5ZM391.698 1.5H393.702V0.5H391.698V1.5ZM398.711 1.5H400.714V0.5H398.711V1.5ZM405.723 1.5H407.727V0.5H405.723V1.5ZM412.736 1.5H414.74V0.5H412.736V1.5ZM419.748 1.5H421.752V0.5H419.748V1.5ZM426.761 1.5H428.765V0.5H426.761V1.5ZM433.773 1.5H435.777V0.5H433.773V1.5ZM440.786 1.5H442.79V0.5H440.786V1.5ZM447.798 1.5H449.802V0.5H447.798V1.5ZM454.811 1.5H456.815V0.5H454.811V1.5ZM461.823 1.5H463.827V0.5H461.823V1.5ZM468.836 1.5H470.84V0.5H468.836V1.5ZM475.849 1.5H477.852V0.5H475.849V1.5ZM482.861 1.5H484.865V0.5H482.861V1.5ZM489.874 1.5H491.877V0.5H489.874V1.5ZM496.886 1.5H498.89V0.5H496.886V1.5ZM503.899 1.5H505.902V0.5H503.899V1.5ZM510.911 1.5H512.915V0.5H510.911V1.5ZM517.924 1.5H519.927V0.5H517.924V1.5ZM524.936 1.5H526.94V0.5H524.936V1.5ZM531.949 1.5H533.952V0.5H531.949V1.5ZM538.961 1.5H540.965V0.5H538.961V1.5ZM545.974 1.5H547.977V0.5H545.974V1.5ZM552.986 1.5H554.99V0.5H552.986V1.5ZM559.999 1.5H561V0.5H559.999V1.5Z" fill="#2C384F" fill-opacity="0.3"/>
</svg>
