<svg width="76" height="20" viewBox="0 0 76 20" fill="none" xmlns="http://www.w3.org/2000/svg">
<path d="M9.99999 18.3334C5.40832 18.3334 1.66666 14.5917 1.66666 10C1.66666 5.40837 5.40832 1.66671 9.99999 1.66671C14.5917 1.66671 18.3333 5.40837 18.3333 10C18.3333 14.5917 14.5917 18.3334 9.99999 18.3334ZM13.3833 8.50837C13.2583 8.38337 13.1 8.32504 12.9417 8.32504C12.7833 8.32504 12.625 8.38337 12.5 8.50837L9.99999 11.0084L7.49999 8.50837C7.25832 8.26671 6.85832 8.26671 6.61666 8.50837C6.37499 8.75004 6.37499 9.15004 6.61666 9.39171L9.55832 12.3334C9.79999 12.575 10.2 12.575 10.4417 12.3334L13.3833 9.39171C13.625 9.14171 13.625 8.75004 13.3833 8.50837Z" fill="#EB3B5A"/>
<path d="M28.875 13.2273H34.392V15.5H36.0682V13.2273H37.608V11.7386H36.0682V3.86364H33.9034L28.875 11.8068V13.2273ZM34.4034 11.7386H30.7159V11.6477L34.3125 5.95455H34.4034V11.7386ZM40.2926 15.608C40.9119 15.608 41.429 15.1023 41.429 14.4716C41.429 13.8523 40.9119 13.3409 40.2926 13.3409C39.6676 13.3409 39.1562 13.8523 39.1562 14.4716C39.1562 15.1023 39.6676 15.608 40.2926 15.608ZM47.3267 15.6591C49.7017 15.6591 51.446 14.2386 51.4403 12.3068C51.446 10.8352 50.554 9.77841 49.0085 9.53977V9.44886C50.2244 9.13636 51.0142 8.18182 51.0085 6.875C51.0142 5.16477 49.6108 3.70455 47.3722 3.70455C45.2358 3.70455 43.5199 4.99432 43.4631 6.88636H45.1619C45.2017 5.81818 46.2074 5.17045 47.3494 5.17045C48.5369 5.17045 49.3153 5.89205 49.3097 6.96591C49.3153 8.09091 48.4119 8.82955 47.1222 8.82955H46.1392V10.2614H47.1222C48.7358 10.2614 49.6676 11.0795 49.6676 12.25C49.6676 13.3807 48.6847 14.1477 47.3153 14.1477C46.054 14.1477 45.071 13.5 45.0028 12.4659H43.2188C43.2926 14.3636 44.9744 15.6591 47.3267 15.6591ZM57.6506 15.6591C60.0824 15.6818 61.696 13.9318 61.6903 11.6989C61.696 9.47159 60.0767 7.875 58.0597 7.875C56.8324 7.875 55.7699 8.46591 55.1733 9.44886H55.0881C55.0938 6.80682 56.0938 5.23864 57.7983 5.23864C58.9176 5.23864 59.6222 5.92045 59.8608 6.88636H61.5938C61.3267 5.04545 59.8778 3.70455 57.7983 3.70455C55.0938 3.70455 53.4062 6.02841 53.4062 10.0739C53.4006 14.358 55.5824 15.642 57.6506 15.6591ZM57.6449 14.1818C56.2926 14.1818 55.304 13.0455 55.304 11.7386C55.3097 10.4375 56.3438 9.30114 57.6847 9.30114C59.0142 9.30114 59.9915 10.375 59.9858 11.7216C59.9915 13.0966 58.9744 14.1818 57.6449 14.1818ZM69.8338 13.3182C69.8395 14.6307 70.6634 15.7386 72.2031 15.7386C73.7259 15.7386 74.5611 14.6307 74.5611 13.3182V12.7045C74.5611 11.3864 73.7486 10.2841 72.2031 10.2841C70.6861 10.2841 69.8395 11.392 69.8338 12.7045V13.3182ZM63.9815 6.65909C63.9815 7.97159 64.8111 9.07955 66.3509 9.07955C67.8679 9.07955 68.7088 7.97727 68.7031 6.65909V6.04545C68.7088 4.72727 67.8906 3.625 66.3509 3.625C64.8395 3.625 63.9815 4.72727 63.9815 6.04545V6.65909ZM64.4588 15.5H65.8168L73.8168 3.86364H72.4588L64.4588 15.5ZM71.1577 12.7045C71.1634 12.0511 71.4474 11.4205 72.2031 11.4205C72.9872 11.4205 73.2315 12.0511 73.2315 12.7045V13.3182C73.2315 13.9716 72.9645 14.6023 72.2031 14.6023C71.4304 14.6023 71.1634 13.9659 71.1577 13.3182V12.7045ZM65.3111 6.04545C65.3111 5.39773 65.5952 4.76136 66.3509 4.76136C67.1349 4.76136 67.3793 5.39205 67.3793 6.04545V6.65909C67.3793 7.3125 67.1122 7.94318 66.3509 7.94318C65.5781 7.94318 65.3111 7.3125 65.3111 6.65909V6.04545Z" fill="#EB3B5A"/>
</svg>
